<?xml version="1.0" standalone="no"?>
<!DOCTYPE svg PUBLIC "-//W3C//DTD SVG 20010904//EN"
 "http://www.w3.org/TR/2001/REC-SVG-20010904/DTD/svg10.dtd">
<svg version="1.0" xmlns="http://www.w3.org/2000/svg"
 width="490.000000pt" height="490.000000pt" viewBox="0 0 490.000000 490.000000"
 preserveAspectRatio="xMidYMid meet">

<g transform="translate(0.000000,490.000000) scale(0.100000,-0.100000)"
fill="#000000" stroke="none">
<path d="M2175 4750 c-216 -27 -462 -85 -577 -137 -113 -50 -175 -156 -165
-278 4 -54 15 -84 82 -211 71 -135 77 -149 60 -158 -88 -53 -236 -159 -311
-225 l-91 -79 -114 115 c-137 138 -180 163 -285 163 -87 0 -155 -31 -214 -97
-124 -142 -295 -457 -374 -693 -77 -231 -112 -424 -123 -675 -7 -196 5 -251
70 -322 89 -96 157 -108 396 -68 171 28 180 28 181 -15 0 -40 56 -227 100
-335 27 -65 48 -120 47 -120 -52 -17 -307 -154 -335 -179 -60 -54 -85 -122
-80 -215 5 -93 16 -117 120 -256 92 -121 253 -289 371 -384 199 -161 499 -328
732 -408 178 -61 290 -49 377 41 55 57 68 95 98 283 15 96 29 175 31 177 2 2
38 -1 79 -6 41 -5 155 -8 253 -6 97 2 177 3 177 1 0 -1 11 -77 25 -168 34
-221 62 -277 170 -333 79 -41 167 -36 320 17 251 88 530 247 736 419 191 161
430 441 465 546 34 101 -4 243 -81 302 -17 12 -91 53 -165 89 -74 37 -136 68
-138 70 -2 2 10 29 26 61 40 80 88 218 117 338 14 54 26 100 27 101 2 1 64 -8
138 -21 74 -12 158 -23 186 -23 106 -2 201 56 248 151 25 49 26 60 26 209 0
452 -136 895 -395 1284 -81 123 -137 184 -193 211 -52 26 -202 26 -252 1 -19
-10 -83 -68 -142 -129 l-106 -111 -61 54 c-97 89 -315 237 -385 262 -6 3 22
69 63 149 70 138 74 148 74 214 1 133 -68 227 -201 277 -89 33 -291 83 -417
103 -116 18 -483 27 -590 14z m465 -391 c151 -18 339 -63 432 -102 42 -18 78
-68 78 -109 0 -15 -7 -42 -16 -60 l-16 -34 -96 34 c-122 41 -192 40 -256 -5
-65 -46 -82 -87 -107 -266 l-22 -158 -61 8 c-34 4 -123 7 -198 7 -76 -1 -138
-1 -138 0 0 0 -11 72 -24 159 -20 133 -28 164 -51 197 -33 48 -112 90 -169 90
-33 0 -200 -51 -279 -85 -13 -6 -21 2 -37 36 -25 56 -25 86 0 126 22 38 47 51
155 86 182 60 345 85 565 86 86 1 194 -4 240 -10z m-553 -539 c32 -19 42 -42
57 -132 7 -37 6 -37 -36 -48 -24 -6 -56 -15 -72 -20 -94 -31 -154 4 -196 115
-11 29 4 39 121 79 89 31 86 31 126 6z m814 0 c96 -30 95 -29 64 -91 -52 -103
-95 -128 -180 -105 l-50 13 3 54 c4 65 28 119 62 136 32 16 27 16 101 -7z
m258 -111 c118 -67 307 -210 320 -241 2 -5 -58 -72 -133 -148 l-136 -138 0
-51 c0 -45 6 -58 45 -112 25 -34 45 -65 45 -70 0 -24 -56 2 -84 40 -92 119
-261 253 -381 300 -107 42 -126 53 -140 81 -8 15 -12 30 -9 33 3 3 31 -3 61
-14 131 -45 150 -31 260 181 48 93 90 170 92 170 2 0 29 -14 60 -31z m-1342
-160 c106 -206 117 -212 275 -159 49 17 94 28 98 25 14 -9 -10 -64 -34 -77
-11 -7 -55 -26 -96 -43 -139 -57 -264 -154 -396 -307 -35 -41 -46 -48 -77 -48
-20 0 -37 5 -37 10 0 6 21 41 46 78 41 59 45 72 41 109 -4 38 -17 55 -131 175
l-127 133 60 57 c97 92 273 214 292 203 4 -3 43 -73 86 -156z m-784 65 c21
-14 40 -31 43 -39 3 -8 -21 -51 -54 -97 -71 -97 -82 -123 -82 -188 0 -106 41
-152 218 -239 l129 -64 -43 -99 c-23 -55 -50 -136 -60 -180 l-18 -80 -41 5
c-22 3 -86 13 -142 23 -117 21 -171 13 -229 -31 -60 -46 -74 -93 -74 -252 0
-160 5 -153 -93 -153 -102 0 -137 48 -137 189 0 358 115 740 317 1051 80 123
119 168 156 179 39 11 61 6 110 -25z m2908 14 c45 -16 156 -181 251 -371 111
-220 176 -463 199 -735 15 -175 8 -225 -36 -269 -32 -32 -37 -34 -96 -31 l-61
3 1 142 c2 187 -19 240 -114 284 -53 25 -104 24 -265 -5 -74 -13 -136 -24
-136 -23 -1 1 -11 40 -23 87 -12 47 -38 123 -57 170 -19 46 -34 88 -34 92 0 4
66 41 148 82 81 41 157 85 169 98 55 58 69 168 33 242 -11 23 -47 74 -80 115
l-60 75 22 23 c23 25 73 43 98 35 8 -2 27 -8 41 -14z m-1398 -193 c65 -7 63
-2 46 -119 -16 -106 -6 -123 91 -157 175 -60 301 -151 397 -287 64 -89 91 -93
206 -36 l68 35 29 -64 c27 -61 74 -217 67 -224 -2 -2 -44 -10 -93 -19 -116
-21 -134 -37 -134 -115 0 -168 -49 -332 -142 -470 -79 -118 -78 -130 13 -225
l72 -73 -44 -41 c-47 -42 -188 -145 -193 -139 -1 2 -22 40 -45 84 -24 44 -50
88 -58 98 -21 22 -72 22 -149 -2 -150 -47 -325 -47 -462 0 -74 25 -114 24
-139 -4 -11 -12 -42 -61 -68 -110 l-47 -87 -48 26 c-58 32 -179 123 -194 146
-9 14 3 30 67 96 95 98 99 119 36 202 -96 127 -146 273 -154 444 -5 102 -18
139 -52 150 -19 5 -192 36 -205 36 -5 0 -8 9 -8 19 0 26 55 191 80 240 l20 40
92 -44 c132 -64 138 -63 223 50 97 129 222 218 384 275 99 34 109 52 92 159
-19 125 -21 120 52 123 66 4 106 2 200 -7z m1117 -181 c30 -50 31 -53 17 -86
-11 -27 -32 -45 -86 -76 l-72 -41 -39 61 c-63 96 -56 133 38 223 l47 44 32
-37 c17 -20 46 -60 63 -88z m-2255 -28 c6 -30 2 -45 -26 -92 -19 -31 -40 -58
-46 -61 -14 -5 -74 28 -110 60 -40 36 -31 83 29 162 l51 68 48 -50 c31 -33 50
-62 54 -87z m-266 -692 c11 -4 12 -21 7 -91 -4 -48 -14 -99 -21 -113 -17 -33
-71 -60 -119 -60 l-36 0 0 106 c0 58 5 114 11 125 20 39 92 54 158 33z m2749
-20 c21 -24 22 -33 20 -137 l-3 -112 -55 3 c-111 7 -143 44 -150 174 l-5 88
35 6 c19 3 42 7 50 9 36 9 86 -5 108 -31z m-2449 -29 c36 -18 48 -51 55 -152
10 -156 64 -313 154 -452 47 -72 51 -97 21 -135 l-21 -27 -44 58 c-83 109 -87
113 -136 113 -35 0 -78 -16 -192 -70 -81 -38 -149 -70 -150 -70 -2 0 -20 37
-39 83 -35 82 -78 218 -91 288 -8 43 -22 37 179 70 130 21 142 25 173 55 l32
32 0 111 c0 122 2 126 59 96z m2029 -120 c-1 -90 9 -118 50 -139 16 -8 102
-27 193 -41 90 -15 167 -30 172 -34 20 -19 -108 -396 -139 -408 -7 -2 -80 30
-163 71 -209 105 -242 104 -321 -13 -19 -28 -38 -51 -42 -51 -15 0 -29 43 -23
68 4 15 18 41 31 59 81 106 148 302 162 470 9 100 11 108 38 131 l28 25 8 -29
c4 -16 7 -65 6 -109z m-2109 -679 c15 -8 47 -41 71 -72 l43 -58 -39 -34 c-79
-69 -115 -65 -179 18 -44 57 -72 107 -64 114 2 2 22 13 44 24 47 25 86 27 124
8z m2260 -13 c29 -15 55 -33 58 -40 5 -13 -31 -67 -81 -120 -44 -48 -80 -45
-148 13 -29 25 -53 49 -53 54 0 5 17 30 39 55 60 73 99 81 185 38z m-1409
-174 c118 -33 299 -37 425 -9 158 35 158 35 190 8 16 -14 25 -29 22 -35 -4 -6
-52 -26 -108 -44 -112 -37 -149 -67 -149 -122 0 -18 10 -98 21 -180 12 -81 19
-150 15 -155 -12 -11 -393 -9 -405 3 -7 7 -2 64 16 172 25 160 25 162 7 200
-19 39 -26 43 -156 88 -27 9 -48 23 -48 30 0 18 57 65 78 65 9 0 51 -10 92
-21z m1239 -103 c124 -127 149 -141 241 -134 81 6 124 37 195 142 32 47 62 86
66 86 21 0 81 -46 94 -71 31 -58 21 -90 -62 -201 -186 -249 -466 -474 -748
-603 -115 -52 -271 -105 -312 -105 -52 0 -108 58 -117 122 -8 54 -3 68 23 68
39 0 228 63 263 87 24 16 48 46 64 79 40 82 32 125 -52 291 -40 78 -64 137
-58 139 30 12 166 110 219 158 33 30 62 55 66 56 3 0 56 -51 118 -114z m-2469
23 c66 -99 117 -145 179 -158 49 -10 110 -3 151 18 14 7 71 58 127 114 l102
100 55 -51 c57 -52 169 -130 219 -153 15 -7 27 -16 27 -21 0 -5 -28 -64 -62
-131 -57 -110 -63 -128 -63 -182 0 -120 60 -177 239 -229 49 -14 91 -27 93
-29 5 -6 -18 -109 -29 -130 -13 -25 -68 -57 -99 -57 -41 0 -224 66 -348 125
-276 133 -553 364 -726 605 -67 94 -76 137 -39 187 21 28 88 73 110 73 6 0 35
-36 64 -81z m2010 -246 c41 -92 10 -126 -157 -173 -46 -13 -86 -21 -89 -17
-11 11 -24 100 -18 121 15 48 45 75 107 96 34 11 73 27 87 35 30 17 37 11 70
-62z m-973 26 c29 -11 64 -34 79 -52 24 -28 26 -37 21 -90 -3 -32 -8 -61 -11
-64 -3 -3 -43 6 -90 21 -125 39 -149 78 -104 171 16 33 27 44 38 39 8 -3 38
-15 67 -25z"/>
</g>
</svg>
